PathFileType	4	(X/Y/Z)	/tmp/tmpjyyagnya//results/MarkerData/Run_5.trc
DataRate	CameraRate	NumFrames	NumMarkers	Units	OrigDataRate	OrigDataStartFrame	OrigNumFrames
120.005	120.005	8	41	m	120.005	70	565
Frame#	Time	C7			CLAV			LACR			LASI			LCAL			LFAradius			LFAsuperior			LFAulna			LLEL			LMEL			LMT5			LPSI			LTB1			LTB2			LTB3			LTH1			LTH2			LTH3			LTOE			LUA1			LUA2			LUA3			RACR			RASI			RCAL			RFAradius			RFAsuperior			RFAulna			RLEL			RMEL			RMT5			RPSI			RTB1			RTB2			RTB3			RTH1			RTH3			RTOE			RUA1			RUA2			RUA3		
		X1	Y1	Z1	X2	Y2	Z2	X3	Y3	Z3	X4	Y4	Z4	X5	Y5	Z5	X6	Y6	Z6	X7	Y7	Z7	X8	Y8	Z8	X9	Y9	Z9	X10	Y10	Z10	X11	Y11	Z11	X12	Y12	Z12	X13	Y13	Z13	X14	Y14	Z14	X15	Y15	Z15	X16	Y16	Z16	X17	Y17	Z17	X18	Y18	Z18	X19	Y19	Z19	X20	Y20	Z20	X21	Y21	Z21	X22	Y22	Z22	X23	Y23	Z23	X24	Y24	Z24	X25	Y25	Z25	X26	Y26	Z26	X27	Y27	Z27	X28	Y28	Z28	X29	Y29	Z29	X30	Y30	Z30	X31	Y31	Z31	X32	Y32	Z32	X33	Y33	Z33	X34	Y34	Z34	X35	Y35	Z35	X36	Y36	Z36	X37	Y37	Z37	X38	Y38	Z38	X39	Y39	Z39	X40	Y40	Z40	X41	Y41	Z41

71	0.6	0.918537	1.50217	-0.330026	1.04421	1.44527	-0.308628	0.96462	1.45798	-0.512204	1.03173	1.00515	-0.434589	1.21227	0.0962574	-0.321209	0.934527	1.10036	-0.529172	0.844652	1.1569	-0.607873	0.912604	1.06576	-0.585102	0.753963	1.24932	-0.614978	0.727984	1.24904	-0.531907	1.40528	0.144694	-0.376663	0.874533	1.03294	-0.363403	1.23806	0.436904	-0.340507	1.22084	0.35005	-0.410293	1.26722	0.270015	-0.330734	1.02851	0.820241	-0.493023	1.12537	0.747848	-0.466872	1.11595	0.622291	-0.429116	1.39999	0.183449	-0.294136	0.867009	1.37141	-0.57292	0.792868	1.35469	-0.550204	0.829026	1.29503	-0.594528	1.01191	1.45905	-0.133206	1.05174	0.984051	-0.213796	0.437286	0.63653	-0.26052	1.05762	1.08422	-0.146856	0.996196	1.13752	-0.0558704	1.05438	1.03563	-0.0952589	0.898953	1.20032	-0.000929974	0.849245	1.18028	-0.0657353	0.327794	0.478138	-0.195254	0.882481	1.03611	-0.268229	0.684858	0.467955	-0.252587	0.628592	0.516324	-0.193511	0.562939	0.506	-0.255786	0.948666	0.824374	-0.148777	0.845927	0.580467	-0.189845	0.34027	0.448683	-0.287032	0.965889	1.33623	-0.0656081	0.890365	1.33568	-0.0695696	0.93127	1.26496	-0.0250676
72	0.608333	0.91944	1.49668	-0.331261	1.04457	1.43866	-0.308432	0.96781	1.4508	-0.513246	1.02909	0.999434	-0.435234	1.18624	0.0928488	-0.317054	0.942545	1.09013	-0.530365	0.852561	1.14516	-0.6097	0.921555	1.05531	-0.586524	0.761193	1.23718	-0.617284	0.734384	1.23708	-0.534416	1.38062	0.123323	-0.373516	0.872584	1.0257	-0.361552	1.22797	0.425025	-0.339994	1.20355	0.338531	-0.407985	1.24988	0.257495	-0.32861	1.02488	0.815456	-0.491148	1.12146	0.744485	-0.464767	1.11107	0.615303	-0.42921	1.37839	0.162113	-0.29119	0.871707	1.36143	-0.574621	0.797479	1.34361	-0.55384	0.835826	1.28338	-0.596123	1.01026	1.45244	-0.133018	1.05124	0.978285	-0.213971	0.466203	0.652148	-0.261452	1.04646	1.06809	-0.13945	0.985156	1.12752	-0.052409	1.03971	1.02137	-0.0863421	0.889548	1.19647	-0.00193168	0.840706	1.17683	-0.0675009	0.349844	0.500314	-0.192348	0.881336	1.02807	-0.265971	0.702081	0.465364	-0.248344	0.648717	0.518492	-0.1904	0.583281	0.512411	-0.25301	0.951286	0.816183	-0.148273	0.858041	0.570286	-0.18695	0.359928	0.468724	-0.283615	0.961056	1.33023	-0.0661761	0.885681	1.33183	-0.0710439	0.924085	1.25914	-0.0273451
73	0.616667	0.920343	1.49074	-0.332551	1.04496	1.43154	-0.30818	0.971312	1.44275	-0.514413	1.0261	0.993147	-0.436014	1.15851	0.0930266	-0.312563	0.951108	1.07978	-0.531049	0.861151	1.13293	-0.611337	0.931307	1.04459	-0.587332	0.768884	1.22428	-0.619866	0.741034	1.22422	-0.537384	1.35363	0.101681	-0.369127	0.87032	1.01765	-0.359637	1.21831	0.413071	-0.339254	1.18576	0.326956	-0.404807	1.23178	0.245183	-0.325398	1.02128	0.809448	-0.489998	1.11749	0.739592	-0.463501	1.10562	0.607296	-0.429349	1.35496	0.137734	-0.286049	0.876907	1.35049	-0.576639	0.802554	1.33159	-0.557802	0.842867	1.271	-0.597861	1.00815	1.44527	-0.132554	1.0494	0.971844	-0.21324	0.496345	0.664645	-0.262063	1.03378	1.05137	-0.131679	0.973118	1.11711	-0.0488244	1.02351	1.007	-0.0769828	0.879534	1.19218	-0.00312512	0.831834	1.17288	-0.069602	0.374493	0.51876	-0.189793	0.878851	1.01919	-0.263041	0.720762	0.462189	-0.243951	0.670659	0.519767	-0.187142	0.605418	0.516799	-0.249985	0.954123	0.807292	-0.147974	0.87108	0.560076	-0.183842	0.382866	0.485284	-0.280464	0.955719	1.32325	-0.0668096	0.880563	1.32712	-0.0722784	0.916286	1.25243	-0.0299702
74	0.625	0.921167	1.48452	-0.333952	1.04541	1.42413	-0.30781	0.975146	1.434	-0.515836	1.02233	0.986484	-0.436938	1.12896	0.09587	-0.3072	0.960335	1.06964	-0.531106	0.870481	1.12047	-0.612684	0.941905	1.03384	-0.587401	0.777035	1.21073	-0.622669	0.747974	1.21054	-0.540682	1.32389	0.0829887	-0.36429	0.86721	1.00924	-0.357642	1.2089	0.402596	-0.337524	1.16977	0.316916	-0.400413	1.21241	0.234301	-0.320799	1.01746	0.80229	-0.490022	1.11331	0.732428	-0.463879	1.09937	0.599002	-0.42866	1.32909	0.113745	-0.279498	0.882608	1.33862	-0.578927	0.808046	1.31868	-0.562038	0.850132	1.25797	-0.599678	1.00557	1.43776	-0.131792	1.04668	0.964906	-0.21206	0.527716	0.673661	-0.262234	1.01965	1.03427	-0.123534	0.960144	1.10637	-0.0450987	1.00564	0.992652	-0.0673875	0.869025	1.18748	-0.00454115	0.822711	1.16853	-0.0720251	0.401225	0.533239	-0.187522	0.875401	1.00942	-0.259841	0.740998	0.458179	-0.239603	0.694159	0.519641	-0.183911	0.629131	0.51915	-0.24687	0.957386	0.798112	-0.147725	0.885378	0.549801	-0.180121	0.408066	0.498371	-0.277804	0.949735	1.31563	-0.0674494	0.874886	1.32167	-0.0734193	0.907858	1.24512	-0.0327315
75	0.633333	0.921916	1.47823	-0.335541	1.04592	1.41674	-0.307253	0.979214	1.42485	-0.517571	1.01746	0.979844	-0.437775	1.09703	0.0998837	-0.301412	0.970326	1.05998	-0.530377	0.880612	1.10798	-0.613609	0.95339	1.02332	-0.586635	0.785689	1.19659	-0.625617	0.755186	1.19622	-0.544139	1.29097	0.0700651	-0.359891	0.862807	1.00127	-0.355405	1.19886	0.394953	-0.334413	1.15659	0.310127	-0.395453	1.191	0.226148	-0.315629	1.01319	0.794756	-0.491112	1.10878	0.723331	-0.465805	1.09262	0.591633	-0.427062	1.29968	0.0942928	-0.272838	0.88885	1.32585	-0.581367	0.81389	1.30499	-0.566565	0.857655	1.24438	-0.601548	1.00247	1.43021	-0.130748	1.04386	0.957567	-0.211214	0.560045	0.679085	-0.261902	1.00416	1.01708	-0.114965	0.946256	1.09538	-0.0411917	0.986035	0.978475	-0.0577675	0.858148	1.18245	-0.00623279	0.813392	1.16389	-0.0747746	0.429608	0.543472	-0.185456	0.871689	0.998952	-0.256878	0.762935	0.453445	-0.235512	0.718885	0.51781	-0.180748	0.654332	0.519601	-0.243868	0.961092	0.789194	-0.14749	0.901276	0.539705	-0.175555	0.434805	0.507956	-0.275738	0.943043	1.30787	-0.0680679	0.868566	1.3157	-0.0746698	0.898883	1.23764	-0.0353612
76	0.641667	0.922727	1.47215	-0.337352	1.04646	1.40974	-0.306469	0.983332	1.41564	-0.519517	1.01155	0.973817	-0.43813	1.06239	0.103743	-0.296329	0.981089	1.05102	-0.528731	0.891625	1.09573	-0.61395	0.965804	1.01333	-0.584959	0.794975	1.18203	-0.62858	0.762585	1.18157	-0.547632	1.25495	0.0636266	-0.356575	0.85715	0.994598	-0.352781	1.18711	0.390498	-0.330393	1.14479	0.307315	-0.391345	1.16714	0.22139	-0.311337	1.00827	0.78807	-0.492698	1.10357	0.713856	-0.468301	1.08617	0.586204	-0.425516	1.26614	0.0819395	-0.26739	0.895703	1.31244	-0.583703	0.820073	1.29076	-0.571394	0.865543	1.23043	-0.603388	0.998858	1.42292	-0.129537	1.04136	0.94988	-0.211423	0.592532	0.681275	-0.261077	0.987295	1.00018	-0.106026	0.931454	1.08433	-0.0370876	0.964724	0.964769	-0.0483135	0.847028	1.17726	-0.00826612	0.803951	1.15916	-0.0778809	0.459246	0.549224	-0.183451	0.868212	0.988606	-0.254462	0.786683	0.448414	-0.2319	0.74462	0.514368	-0.177636	0.68097	0.518399	-0.241177	0.965247	0.781031	-0.147368	0.919007	0.530347	-0.170301	0.462705	0.51386	-0.274112	0.935745	1.30055	-0.0686954	0.861619	1.30951	-0.0763007	0.889554	1.23054	-0.0376064
77	0.65	0.923766	1.46659	-0.339293	1.04693	1.40346	-0.305468	0.987337	1.40677	-0.521409	1.00513	0.969025	-0.437771	1.02534	0.10672	-0.292998	0.992533	1.04304	-0.526138	0.90363	1.08399	-0.61356	0.979177	1.00424	-0.582309	0.805094	1.16735	-0.631343	0.770144	1.16693	-0.551119	1.21656	0.0619602	-0.354582	0.850928	0.989808	-0.349907	1.17299	0.388166	-0.326718	1.13121	0.3075	-0.38935	1.14105	0.219469	-0.308936	1.00251	0.783256	-0.494165	1.09721	0.706058	-0.470249	1.08048	0.582792	-0.42527	1.22903	0.0763162	-0.263963	0.903194	1.29894	-0.585525	0.826665	1.2764	-0.576365	0.87397	1.21666	-0.604996	0.994822	1.4162	-0.128376	1.03893	0.941993	-0.212967	0.62397	0.680976	-0.259839	0.969028	0.984025	-0.0969259	0.915773	1.07364	-0.0328589	0.941832	0.952016	-0.0392074	0.835778	1.17224	-0.0106884	0.794523	1.15458	-0.081369	0.489764	0.550389	-0.18131	0.865009	0.979701	-0.252601	0.812252	0.443559	-0.228942	0.771319	0.509796	-0.174598	0.708877	0.51583	-0.238896	0.969866	0.773991	-0.147458	0.938648	0.522449	-0.164894	0.491589	0.515802	-0.272561	0.928104	1.29418	-0.0694118	0.854235	1.30343	-0.0786063	0.8801	1.22434	-0.0393386
78	0.658333	0.925037	1.46172	-0.341161	1.04719	1.39805	-0.304302	0.991187	1.39862	-0.522911	0.999016	0.965825	-0.436947	0.986786	0.108682	-0.29174	1.00451	1.03642	-0.522691	0.9167	1.07317	-0.612355	0.993511	0.996461	-0.578643	0.816224	1.15305	-0.633633	0.778044	1.15264	-0.554564	1.17698	0.0622685	-0.353779	0.845191	0.986925	-0.34729	1.15636	0.38586	-0.324638	1.11301	0.308346	-0.389684	1.11329	0.218737	-0.308316	0.99573	0.780501	-0.495196	1.08938	0.701295	-0.471187	1.07493	0.580422	-0.426742	1.1898	0.0748265	-0.262567	0.911192	1.28624	-0.586443	0.83376	1.26256	-0.581032	0.883104	1.20381	-0.606096	0.990545	1.41025	-0.127494	1.03597	0.934263	-0.215525	0.653108	0.678973	-0.258318	0.949319	0.969178	-0.0879954	0.899324	1.0639	-0.0287096	0.917592	0.940841	-0.0306484	0.824482	1.16787	-0.0134885	0.785319	1.15044	-0.0852206	0.520785	0.547045	-0.17889	0.861875	0.973466	-0.251151	0.839504	0.439238	-0.22669	0.798963	0.504801	-0.171727	0.737634	0.512217	-0.237002	0.974754	0.768324	-0.147735	0.960131	0.516697	-0.160005	0.521261	0.513562	-0.27071	0.920459	1.28903	-0.0702957	0.846771	1.2979	-0.0818077	0.870676	1.21948	-0.0406454
